PathFileType	4	(X/Y/Z)	RBDS028static.trc
DataRate	CameraRate	NumFrames	NumMarkers	Units	OrigDataRate	OrigDataStartFrame	OrigNumFrames
150.000000	150.000000	4	48	mm	150.000000	75	150
Frame#	Time	L.Ankle			L.Ankle.Medial			L.ASIS			L.GTR			L.Heel.Bottom			L.Heel.Lateral			L.Heel.Top			L.HF			L.Iliac.Crest			L.Knee			L.Knee.Medial			L.MT1			L.MT2			L.MT5			L.PSIS			L.Shank.Bottom.Lateral			L.Shank.Bottom.Medial			L.Shank.Top.Lateral			L.Shank.Top.Medial			L.Thigh.Bottom.Lateral			L.Thigh.Bottom.Medial			L.Thigh.Top.Lateral			L.Thigh.Top.Medial			L.TT			R.Ankle			R.Ankle.Medial			R.ASIS			R.GTR			R.Heel.Bottom			R.Heel.Lateral			R.Heel.Top			R.HF			R.Iliac.Crest			R.Knee			R.Knee.Medial			R.MT1			R.MT2			R.MT5			R.PSIS			R.Shank.Bottom.Lateral			R.Shank.Bottom.Medial			R.Shank.Top.Lateral			R.Shank.Top.Medial			R.Thigh.Bottom.Lateral			R.Thigh.Bottom.Medial			R.Thigh.Top.Lateral			R.Thigh.Top.Medial			R.TT			
		X1	Y1	Z1	X2	Y2	Z2	X3	Y3	Z3	X4	Y4	Z4	X5	Y5	Z5	X6	Y6	Z6	X7	Y7	Z7	X8	Y8	Z8	X9	Y9	Z9	X10	Y10	Z10	X11	Y11	Z11	X12	Y12	Z12	X13	Y13	Z13	X14	Y14	Z14	X15	Y15	Z15	X16	Y16	Z16	X17	Y17	Z17	X18	Y18	Z18	X19	Y19	Z19	X20	Y20	Z20	X21	Y21	Z21	X22	Y22	Z22	X23	Y23	Z23	X24	Y24	Z24	X25	Y25	Z25	X26	Y26	Z26	X27	Y27	Z27	X28	Y28	Z28	X29	Y29	Z29	X30	Y30	Z30	X31	Y31	Z31	X32	Y32	Z32	X33	Y33	Z33	X34	Y34	Z34	X35	Y35	Z35	X36	Y36	Z36	X37	Y37	Z37	X38	Y38	Z38	X39	Y39	Z39	X40	Y40	Z40	X41	Y41	Z41	X42	Y42	Z42	X43	Y43	Z43	X44	Y44	Z44	X45	Y45	Z45	X46	Y46	Z46	X47	Y47	Z47	X48	Y48	Z48	

76	0.5	712.0021362304688	92.84267425537109	1051.597412109375	730.3803100585938	106.2421188354492	1133.71044921875	833.9820556640625	893.6175537109375	1107.882568359375	787.7044067382813	805.6175537109375	1061.335693359375	638.21875	39.06501388549805	1087.621704101563	668.3397216796875	56.37967681884766	1044.81787109375	649.1123046875	83.47496032714844	1088.6064453125	743.6249389648438	412.8893127441406	1051.737182617188	770.15869140625	944.2974243164063	1078.609252929688	748.4142456054688	475.7306213378906	1059.14013671875	731.6824951171875	452.7872314453125	1171.619750976563	855.9331665039063	53.51438140869141	1132.007690429688	858.14306640625	65.83702087402344	1084.621337890625	823.4132690429688	46.65582275390625	1021.396362304688	678.4580688476563	923.9424438476563	1177.870361328125	714.0930786132813	171.3637084960938	1043.929809570313	673.6325073242188	169.6516571044922	1075.364501953125	705.3997192382813	251.0135955810547	1032.0234375	666.9719848632813	254.0982513427734	1068.594482421875	771.6757202148438	574.5548706054688	1040.058349609375	704.7367553710938	576.3919067382813	1068.747314453125	773.0464477539063	684.8800659179688	1040.088623046875	711.1567993164063	685.26123046875	1072.129638671875	789.4816284179688	393.2933959960938	1103.813354492188	706.8643798828125	98.69123840332031	1406.64453125	726.1948852539063	107.7487411499023	1324.655395507813	827.9464111328125	901.4810791015625	1347.769165039063	777.9117431640625	815.244873046875	1393.064453125	636.63427734375	38.21760559082031	1369.08984375	666.6331787109375	59.28947067260742	1410.779296875	646.7484130859375	83.45913696289063	1367.564086914063	734.2030639648438	419.9341735839844	1403.548828125	775.5450439453125	962.3505859375	1367.075439453125	737.4209594726563	482.2577819824219	1396.582763671875	732.7516479492188	458.6461181640625	1280.331298828125	853.6305541992188	53.88390731811523	1331.642578125	857.9519653320313	64.30352020263672	1379.955688476563	819.6981811523438	46.65803146362305	1441.62158203125	677.829345703125	927.2029418945313	1270.686157226563	704.8894653320313	178.2150573730469	1414.636596679688	666.2095336914063	178.0557556152344	1374.284790039063	694.3566284179688	258.4225769042969	1421.938598632813	658.6552124023438	257.6611328125	1381.684814453125	746.743408203125	570.2022705078125	1410.866088867188	687.212158203125	572.7076416015625	1370.14697265625	749.9456176757813	680.6942138671875	1410.126220703125	693.3238525390625	682.3758544921875	1371.7294921875	779.0955810546875	395.75146484375	1358.338256835938	
77	0.5066666666666667	712.0084228515625	92.83500671386719	1051.591674804688	730.3710327148438	106.2390747070313	1133.717407226563	833.94677734375	893.6266479492188	1107.873779296875	787.6649169921875	805.6250610351563	1061.334716796875	638.4545288085938	38.94266891479492	1087.653198242188	668.3351440429688	56.38260650634766	1044.81689453125	649.10693359375	83.47411346435547	1088.606811523438	743.6188354492188	412.879150390625	1051.74951171875	770.10986328125	944.2997436523438	1078.607788085938	748.4139404296875	475.7240905761719	1059.16015625	731.66748046875	452.784423828125	1171.580810546875	855.939697265625	53.52119827270508	1132.016845703125	858.1351928710938	65.84027099609375	1084.628295898438	823.4016723632813	46.65925979614258	1021.391845703125	678.4083862304688	923.9371948242188	1177.887451171875	714.0968017578125	171.3695831298828	1043.92529296875	673.6299438476563	169.6461639404297	1075.361450195313	705.3923950195313	251.0126953125	1032.0224609375	666.9707641601563	254.0918426513672	1068.588012695313	771.6596069335938	574.5548706054688	1040.058959960938	704.708251953125	576.3853759765625	1068.748901367188	773.0213012695313	684.883544921875	1040.095825195313	711.1233520507813	685.2474975585938	1072.138061523438	789.4765625	393.2910461425781	1103.803955078125	706.8699340820313	98.69271850585938	1406.640258789063	726.2010498046875	107.7511215209961	1324.648193359375	827.9043579101563	901.4782104492188	1347.77587890625	777.8746337890625	815.2515869140625	1393.060302734375	636.637939453125	38.21896362304688	1369.089477539063	666.6248168945313	59.29545593261719	1410.77001953125	646.7473754882813	83.46672821044922	1367.562744140625	734.1885986328125	419.9220886230469	1403.551147460938	775.51806640625	962.3488159179688	1367.078735351563	737.4033203125	482.2663269042969	1396.585815429688	732.7406616210938	458.6434936523438	1280.331176757813	853.616455078125	53.88219833374023	1331.643676757813	857.946533203125	64.29792022705078	1379.962890625	819.69091796875	46.65870666503906	1441.620971679688	677.788330078125	927.1871948242188	1270.691284179688	704.873779296875	178.2151489257813	1414.633544921875	666.2013549804688	178.0582427978516	1374.279174804688	694.3434448242188	258.4168701171875	1421.9423828125	658.6478271484375	257.6553344726563	1381.68408203125	746.715087890625	570.2035522460938	1410.868530273438	687.1922607421875	572.6990966796875	1370.144287109375	749.9164428710938	680.6992797851563	1410.13134765625	693.2982788085938	682.3803100585938	1371.7275390625	779.0941772460938	395.7616882324219	1358.334106445313	
78	0.5133333333333334	712.005615234375	92.83167266845703	1051.598022460938	730.3734741210938	106.2407836914063	1133.71044921875	833.8876953125	893.6276245117188	1107.882690429688	787.632568359375	805.6304931640625	1061.334838867188	638.2118530273438	39.07833862304688	1087.619873046875	668.3378295898438	56.37914276123047	1044.817504882813	649.1046142578125	83.47862243652344	1088.606689453125	743.6260986328125	412.8788757324219	1051.756713867188	770.03759765625	944.3018188476563	1078.618286132813	748.3917846679688	475.7308654785156	1059.154052734375	731.665283203125	452.7887573242188	1171.625	855.9366455078125	53.51605224609375	1132.014770507813	858.1351318359375	65.83370971679688	1084.620971679688	823.4014282226563	46.66624450683594	1021.394348144531	678.3695068359375	923.9330444335938	1177.890747070313	714.093017578125	171.3678588867188	1043.926147460938	673.6249389648438	169.6439208984375	1075.367309570313	705.382568359375	251.0180358886719	1032.022216796875	666.9574584960938	254.0843048095703	1068.588989257813	771.6497802734375	574.5586547851563	1040.06982421875	704.6762084960938	576.3914794921875	1068.760009765625	772.9984130859375	684.8921508789063	1040.092651367188	711.0845947265625	685.2550048828125	1072.149047851563	789.4610595703125	393.2960510253906	1103.806762695313	707.1262817382813	99.08353424072266	1406.83447265625	726.2125244140625	107.7441558837891	1324.663330078125	827.8623046875	901.4885864257813	1347.778198242188	777.8414916992188	815.2568359375	1393.07666015625	636.6350708007813	38.22317886352539	1369.093627929688	666.627197265625	59.2889289855957	1410.794189453125	646.7572021484375	83.466796875	1367.567260742188	734.1692504882813	419.9285888671875	1403.550537109375	775.4765014648438	962.3485107421875	1367.093872070313	737.3783569335938	482.2677917480469	1396.58740234375	732.7197265625	458.6480102539063	1280.324096679688	853.6239013671875	53.89514923095703	1331.641723632813	857.9443359375	64.30158996582031	1379.953735351563	819.6834716796875	46.66060256958008	1441.612182617188	677.7510375976563	927.1806640625	1270.701293945313	704.8710327148438	178.2071533203125	1414.635375976563	666.2032470703125	178.0485382080078	1374.280151367188	694.3463745117188	258.4163818359375	1421.942626953125	658.63916015625	257.6475830078125	1381.688720703125	746.70068359375	570.2002563476563	1410.864135742188	687.1700439453125	572.7005004882813	1370.150268554688	749.8853759765625	680.6962890625	1410.1337890625	693.2743530273438	682.3726196289063	1371.730102539063	779.0751953125	395.755126953125	1358.331665039063	
79	0.52	712.0178833007813	92.83969879150391	1051.590942382813	730.378662109375	106.2410507202148	1133.714721679688	833.8453979492188	893.6265258789063	1107.8798828125	787.5617065429688	805.6405029296875	1061.34130859375	638.2091064453125	39.06280517578125	1087.623046875	668.3472900390625	56.37834167480469	1044.816284179688	649.1010131835938	83.46936798095703	1088.610595703125	743.604248046875	412.8753662109375	1051.755859375	769.994384765625	944.302734375	1078.629272460938	748.3859252929688	475.7288818359375	1059.152465820313	731.6400146484375	452.7896423339844	1171.62158203125	855.9360961914063	53.51836395263672	1132.006591796875	858.1351928710938	65.84477996826172	1084.615356445313	823.4036254882813	46.66482543945313	1021.392761230469	678.321533203125	923.9215698242188	1177.895263671875	714.0934448242188	171.3668212890625	1043.9228515625	673.6263427734375	169.6417388916016	1075.369262695313	705.3812255859375	251.0118408203125	1032.0263671875	666.9531860351563	254.0840454101563	1068.590454101563	771.6176147460938	574.5631713867188	1040.065063476563	704.6504516601563	576.3916015625	1068.770385742188	772.9610595703125	684.8907470703125	1040.093505859375	711.0575561523438	685.2554931640625	1072.155639648438	789.4486694335938	393.2878723144531	1103.801635742188	706.8697509765625	98.70128631591797	1406.651977539063	726.205810546875	107.7500381469727	1324.653564453125	827.8253173828125	901.490478515625	1347.772827148438	777.8109741210938	815.2560424804688	1393.078735351563	636.6373901367188	38.21981811523438	1369.093872070313	666.6248779296875	59.28650665283203	1410.777465820313	646.7523193359375	83.46254730224609	1367.565185546875	734.1492919921875	419.9285278320313	1403.559326171875	775.444580078125	962.3533935546875	1367.107299804688	737.3763427734375	482.2660217285156	1396.580444335938	732.7145385742188	458.643310546875	1280.335205078125	853.6268920898438	53.89129257202148	1331.647094726563	857.9442749023438	64.3017578125	1379.958862304688	819.6837158203125	46.66118621826172	1441.612060546875	677.7084350585938	927.1705932617188	1270.72705078125	704.87109375	178.2110748291016	1414.636596679688	666.2117919921875	178.0431823730469	1374.286254882813	694.3353271484375	258.421142578125	1421.943481445313	658.630859375	257.6426696777344	1381.698852539063	746.6832275390625	570.2003784179688	1410.865966796875	687.153076171875	572.6983032226563	1370.141723632813	749.8671875	680.6973266601563	1410.136962890625	693.2509765625	682.3742065429688	1371.732666015625	779.0814208984375	395.761962890625	1358.333618164063	
